<mxfile host="65bd71144e">
    <diagram id="GMFrYa-RoxPD5UZVdOHb" name="전체">
        <mxGraphModel dx="2088" dy="1745" grid="1" gridSize="10" guides="1" tooltips="1" connect="1" arrows="1" fold="1" page="1" pageScale="1" pageWidth="850" pageHeight="1100" math="0" shadow="0">
            <root>
                <mxCell id="0"/>
                <mxCell id="1" parent="0"/>
                <mxCell id="q70gm7w3pCxZrdmaDDds-61" value="SQLite3" style="shape=cylinder3;whiteSpace=wrap;html=1;boundedLbl=1;backgroundOutline=1;size=15;" parent="1" vertex="1">
                    <mxGeometry x="290" y="340" width="90" height="80" as="geometry"/>
                </mxCell>
                <mxCell id="q70gm7w3pCxZrdmaDDds-62" value="기상청 단기예보&lt;div&gt;API&lt;/div&gt;" style="rounded=0;whiteSpace=wrap;html=1;" parent="1" vertex="1">
                    <mxGeometry x="680" y="120" width="120" height="60" as="geometry"/>
                </mxCell>
                <mxCell id="q70gm7w3pCxZrdmaDDds-63" value="서울시&lt;div&gt;&lt;span style=&quot;color: rgb(63, 63, 63); background-color: transparent;&quot;&gt;실시간 도시데이터&lt;/span&gt;&lt;/div&gt;&lt;div&gt;&lt;div&gt;API&lt;/div&gt;&lt;/div&gt;" style="rounded=0;whiteSpace=wrap;html=1;" parent="1" vertex="1">
                    <mxGeometry x="540" y="120" width="120" height="60" as="geometry"/>
                </mxCell>
                <mxCell id="q70gm7w3pCxZrdmaDDds-64" value="Google Translation" style="rounded=0;whiteSpace=wrap;html=1;" parent="1" vertex="1">
                    <mxGeometry x="30" y="260" width="120" height="60" as="geometry"/>
                </mxCell>
                <mxCell id="q70gm7w3pCxZrdmaDDds-65" value="&lt;span style=&quot;color: rgb(0, 0, 0);&quot;&gt;서울시 공공자전거&lt;/span&gt;&lt;div style=&quot;color: rgb(63, 63, 63); scrollbar-color: rgb(226, 226, 226) rgb(251, 251, 251);&quot;&gt;대여소 목록 API&lt;/div&gt;" style="rounded=0;whiteSpace=wrap;html=1;" parent="1" vertex="1">
                    <mxGeometry x="-110" y="260" width="120" height="60" as="geometry"/>
                </mxCell>
                <mxCell id="q70gm7w3pCxZrdmaDDds-66" value="DB Writer" style="rounded=0;whiteSpace=wrap;html=1;" parent="1" vertex="1">
                    <mxGeometry x="540" y="350" width="120" height="60" as="geometry"/>
                </mxCell>
                <mxCell id="q70gm7w3pCxZrdmaDDds-67" value="" style="endArrow=classic;html=1;entryX=1;entryY=0.5;entryDx=0;entryDy=0;entryPerimeter=0;exitX=0;exitY=0.5;exitDx=0;exitDy=0;" parent="1" source="q70gm7w3pCxZrdmaDDds-66" target="q70gm7w3pCxZrdmaDDds-61" edge="1">
                    <mxGeometry width="50" height="50" relative="1" as="geometry">
                        <mxPoint x="490" y="490" as="sourcePoint"/>
                        <mxPoint x="340" y="480" as="targetPoint"/>
                    </mxGeometry>
                </mxCell>
                <mxCell id="q70gm7w3pCxZrdmaDDds-70" value="" style="edgeStyle=elbowEdgeStyle;elbow=vertical;endArrow=classic;html=1;curved=0;rounded=0;endSize=8;startSize=8;entryX=0.5;entryY=0;entryDx=0;entryDy=0;exitX=0.5;exitY=1;exitDx=0;exitDy=0;" parent="1" source="q70gm7w3pCxZrdmaDDds-63" target="q70gm7w3pCxZrdmaDDds-73" edge="1">
                    <mxGeometry width="50" height="50" relative="1" as="geometry">
                        <mxPoint x="220" y="400" as="sourcePoint"/>
                        <mxPoint x="240" y="500" as="targetPoint"/>
                    </mxGeometry>
                </mxCell>
                <mxCell id="q70gm7w3pCxZrdmaDDds-73" value="density_forecast&lt;div&gt;fetcher&lt;/div&gt;" style="rounded=0;whiteSpace=wrap;html=1;" parent="1" vertex="1">
                    <mxGeometry x="540" y="240" width="120" height="60" as="geometry"/>
                </mxCell>
                <mxCell id="q70gm7w3pCxZrdmaDDds-74" value="" style="endArrow=classic;html=1;exitX=1;exitY=0.5;exitDx=0;exitDy=0;entryX=0;entryY=0.5;entryDx=0;entryDy=0;" parent="1" source="q70gm7w3pCxZrdmaDDds-65" target="q70gm7w3pCxZrdmaDDds-64" edge="1">
                    <mxGeometry width="50" height="50" relative="1" as="geometry">
                        <mxPoint x="320" y="310" as="sourcePoint"/>
                        <mxPoint x="950" y="420" as="targetPoint"/>
                    </mxGeometry>
                </mxCell>
                <mxCell id="q70gm7w3pCxZrdmaDDds-75" value="서울시 공공자전거&lt;div&gt;&lt;font color=&quot;#000000&quot;&gt;실시간 대여&amp;nbsp;&lt;/font&gt;&lt;font style=&quot;color: rgb(63, 63, 63); background-color: transparent;&quot;&gt;현황&amp;nbsp;&lt;/font&gt;&lt;span style=&quot;color: rgb(63, 63, 63); background-color: transparent;&quot;&gt;API&lt;/span&gt;&lt;/div&gt;" style="rounded=0;whiteSpace=wrap;html=1;" parent="1" vertex="1">
                    <mxGeometry x="540" y="500" width="120" height="60" as="geometry"/>
                </mxCell>
                <mxCell id="q70gm7w3pCxZrdmaDDds-76" value="json Formatter" style="rounded=0;whiteSpace=wrap;html=1;" parent="1" vertex="1">
                    <mxGeometry x="275" y="500" width="120" height="60" as="geometry"/>
                </mxCell>
                <mxCell id="q70gm7w3pCxZrdmaDDds-77" value="" style="endArrow=classic;html=1;entryX=0.5;entryY=0;entryDx=0;entryDy=0;exitX=0.5;exitY=1;exitDx=0;exitDy=0;exitPerimeter=0;" parent="1" source="q70gm7w3pCxZrdmaDDds-61" target="q70gm7w3pCxZrdmaDDds-76" edge="1">
                    <mxGeometry width="50" height="50" relative="1" as="geometry">
                        <mxPoint x="450" y="570" as="sourcePoint"/>
                        <mxPoint x="500" y="520" as="targetPoint"/>
                    </mxGeometry>
                </mxCell>
                <mxCell id="q70gm7w3pCxZrdmaDDds-78" value="" style="endArrow=classic;html=1;entryX=1;entryY=0.5;entryDx=0;entryDy=0;exitX=0;exitY=0.5;exitDx=0;exitDy=0;" parent="1" source="q70gm7w3pCxZrdmaDDds-75" target="q70gm7w3pCxZrdmaDDds-76" edge="1">
                    <mxGeometry width="50" height="50" relative="1" as="geometry">
                        <mxPoint x="710" y="530" as="sourcePoint"/>
                        <mxPoint x="320" y="670" as="targetPoint"/>
                    </mxGeometry>
                </mxCell>
                <mxCell id="q70gm7w3pCxZrdmaDDds-80" value="Flask" style="rounded=0;whiteSpace=wrap;html=1;" parent="1" vertex="1">
                    <mxGeometry x="110" y="500" width="120" height="60" as="geometry"/>
                </mxCell>
                <mxCell id="q70gm7w3pCxZrdmaDDds-81" value="" style="endArrow=classic;html=1;exitX=0;exitY=0.5;exitDx=0;exitDy=0;entryX=1;entryY=0.5;entryDx=0;entryDy=0;" parent="1" source="q70gm7w3pCxZrdmaDDds-76" target="q70gm7w3pCxZrdmaDDds-80" edge="1">
                    <mxGeometry width="50" height="50" relative="1" as="geometry">
                        <mxPoint x="650" y="580" as="sourcePoint"/>
                        <mxPoint x="700" y="530" as="targetPoint"/>
                    </mxGeometry>
                </mxCell>
                <mxCell id="q70gm7w3pCxZrdmaDDds-86" value="Actor" style="shape=umlActor;verticalLabelPosition=bottom;verticalAlign=top;html=1;outlineConnect=0;" parent="1" vertex="1">
                    <mxGeometry x="-190" y="500" width="30" height="60" as="geometry"/>
                </mxCell>
                <mxCell id="q70gm7w3pCxZrdmaDDds-87" value="Frontend" style="rounded=0;whiteSpace=wrap;html=1;" parent="1" vertex="1">
                    <mxGeometry x="-60" y="500" width="120" height="60" as="geometry"/>
                </mxCell>
                <mxCell id="q70gm7w3pCxZrdmaDDds-88" value="" style="endArrow=classic;html=1;entryX=0;entryY=0.25;entryDx=0;entryDy=0;" parent="1" target="q70gm7w3pCxZrdmaDDds-87" edge="1">
                    <mxGeometry width="50" height="50" relative="1" as="geometry">
                        <mxPoint x="-140" y="515" as="sourcePoint"/>
                        <mxPoint x="-90" y="470" as="targetPoint"/>
                    </mxGeometry>
                </mxCell>
                <mxCell id="q70gm7w3pCxZrdmaDDds-89" value="" style="endArrow=classic;html=1;entryX=0;entryY=0.25;entryDx=0;entryDy=0;exitX=1;exitY=0.25;exitDx=0;exitDy=0;" parent="1" source="q70gm7w3pCxZrdmaDDds-87" target="q70gm7w3pCxZrdmaDDds-80" edge="1">
                    <mxGeometry width="50" height="50" relative="1" as="geometry">
                        <mxPoint x="60" y="520" as="sourcePoint"/>
                        <mxPoint x="140" y="520" as="targetPoint"/>
                    </mxGeometry>
                </mxCell>
                <mxCell id="q70gm7w3pCxZrdmaDDds-90" value="" style="endArrow=classic;dashed=1;html=1;entryX=1;entryY=0.75;entryDx=0;entryDy=0;exitX=0;exitY=0.75;exitDx=0;exitDy=0;" parent="1" source="q70gm7w3pCxZrdmaDDds-80" target="q70gm7w3pCxZrdmaDDds-87" edge="1">
                    <mxGeometry width="50" height="50" relative="1" as="geometry">
                        <mxPoint x="70" y="525" as="sourcePoint"/>
                        <mxPoint x="120" y="525" as="targetPoint"/>
                    </mxGeometry>
                </mxCell>
                <mxCell id="q70gm7w3pCxZrdmaDDds-92" value="" style="endArrow=classic;dashed=1;html=1;exitX=0;exitY=0.75;exitDx=0;exitDy=0;" parent="1" source="q70gm7w3pCxZrdmaDDds-87" edge="1">
                    <mxGeometry width="50" height="50" relative="1" as="geometry">
                        <mxPoint x="-80" y="550" as="sourcePoint"/>
                        <mxPoint x="-140" y="545" as="targetPoint"/>
                    </mxGeometry>
                </mxCell>
                <mxCell id="q70gm7w3pCxZrdmaDDds-93" value="bike_station_info.csv" style="rounded=0;whiteSpace=wrap;html=1;" parent="1" vertex="1">
                    <mxGeometry x="170" y="260" width="120" height="60" as="geometry"/>
                </mxCell>
                <mxCell id="q70gm7w3pCxZrdmaDDds-94" value="" style="endArrow=classic;html=1;entryX=0;entryY=0.5;entryDx=0;entryDy=0;exitX=1;exitY=0.5;exitDx=0;exitDy=0;" parent="1" source="q70gm7w3pCxZrdmaDDds-64" target="q70gm7w3pCxZrdmaDDds-93" edge="1">
                    <mxGeometry width="50" height="50" relative="1" as="geometry">
                        <mxPoint x="400" y="370" as="sourcePoint"/>
                        <mxPoint x="450" y="320" as="targetPoint"/>
                    </mxGeometry>
                </mxCell>
                <mxCell id="q70gm7w3pCxZrdmaDDds-95" value="attraction_info.csv" style="rounded=0;whiteSpace=wrap;html=1;" parent="1" vertex="1">
                    <mxGeometry x="170" y="120" width="120" height="60" as="geometry"/>
                </mxCell>
                <mxCell id="q70gm7w3pCxZrdmaDDds-96" value="main_feature.csv" style="rounded=0;whiteSpace=wrap;html=1;" parent="1" vertex="1">
                    <mxGeometry x="170" y="190" width="120" height="60" as="geometry"/>
                </mxCell>
                <mxCell id="q70gm7w3pCxZrdmaDDds-97" value="문화 빅데이터 포털&lt;div&gt;(csv)&lt;/div&gt;" style="rounded=0;whiteSpace=wrap;html=1;" parent="1" vertex="1">
                    <mxGeometry x="-110" y="190" width="120" height="60" as="geometry"/>
                </mxCell>
                <mxCell id="q70gm7w3pCxZrdmaDDds-99" value="" style="endArrow=classic;html=1;exitX=1;exitY=0.5;exitDx=0;exitDy=0;entryX=0;entryY=0.5;entryDx=0;entryDy=0;" parent="1" source="q70gm7w3pCxZrdmaDDds-97" target="q70gm7w3pCxZrdmaDDds-96" edge="1">
                    <mxGeometry width="50" height="50" relative="1" as="geometry">
                        <mxPoint x="50" y="150" as="sourcePoint"/>
                        <mxPoint x="100" y="100" as="targetPoint"/>
                    </mxGeometry>
                </mxCell>
                <mxCell id="q70gm7w3pCxZrdmaDDds-102" style="edgeStyle=none;html=1;exitX=1;exitY=0.5;exitDx=0;exitDy=0;entryX=0;entryY=0.5;entryDx=0;entryDy=0;" parent="1" source="q70gm7w3pCxZrdmaDDds-101" target="q70gm7w3pCxZrdmaDDds-95" edge="1">
                    <mxGeometry relative="1" as="geometry"/>
                </mxCell>
                <mxCell id="q70gm7w3pCxZrdmaDDds-101" value="서울시&lt;div&gt;주요 장소 목록&lt;/div&gt;&lt;div&gt;(csv)&lt;/div&gt;" style="rounded=0;whiteSpace=wrap;html=1;" parent="1" vertex="1">
                    <mxGeometry x="-110" y="120" width="120" height="60" as="geometry"/>
                </mxCell>
                <mxCell id="q70gm7w3pCxZrdmaDDds-103" value="" style="edgeStyle=segmentEdgeStyle;endArrow=classic;html=1;curved=0;rounded=0;endSize=8;startSize=8;exitX=1;exitY=0.5;exitDx=0;exitDy=0;entryX=0.5;entryY=0;entryDx=0;entryDy=0;entryPerimeter=0;" parent="1" source="q70gm7w3pCxZrdmaDDds-95" target="q70gm7w3pCxZrdmaDDds-61" edge="1">
                    <mxGeometry width="50" height="50" relative="1" as="geometry">
                        <mxPoint x="275" y="200" as="sourcePoint"/>
                        <mxPoint x="325" y="150" as="targetPoint"/>
                    </mxGeometry>
                </mxCell>
                <mxCell id="q70gm7w3pCxZrdmaDDds-105" value="" style="edgeStyle=segmentEdgeStyle;endArrow=classic;html=1;curved=0;rounded=0;endSize=8;startSize=8;exitX=1;exitY=0.5;exitDx=0;exitDy=0;entryX=0.5;entryY=0;entryDx=0;entryDy=0;entryPerimeter=0;" parent="1" source="q70gm7w3pCxZrdmaDDds-96" target="q70gm7w3pCxZrdmaDDds-61" edge="1">
                    <mxGeometry width="50" height="50" relative="1" as="geometry">
                        <mxPoint x="250" y="160" as="sourcePoint"/>
                        <mxPoint x="345" y="350" as="targetPoint"/>
                    </mxGeometry>
                </mxCell>
                <mxCell id="q70gm7w3pCxZrdmaDDds-106" value="" style="edgeStyle=segmentEdgeStyle;endArrow=classic;html=1;curved=0;rounded=0;endSize=8;startSize=8;exitX=1;exitY=0.5;exitDx=0;exitDy=0;entryX=0.5;entryY=0;entryDx=0;entryDy=0;entryPerimeter=0;" parent="1" source="q70gm7w3pCxZrdmaDDds-93" target="q70gm7w3pCxZrdmaDDds-61" edge="1">
                    <mxGeometry width="50" height="50" relative="1" as="geometry">
                        <mxPoint x="250" y="230" as="sourcePoint"/>
                        <mxPoint x="340" y="340" as="targetPoint"/>
                    </mxGeometry>
                </mxCell>
                <mxCell id="q70gm7w3pCxZrdmaDDds-110" value="weather_forecast&lt;div&gt;fetcher&lt;/div&gt;" style="rounded=0;whiteSpace=wrap;html=1;" parent="1" vertex="1">
                    <mxGeometry x="680" y="240" width="120" height="60" as="geometry"/>
                </mxCell>
                <mxCell id="q70gm7w3pCxZrdmaDDds-111" value="" style="endArrow=classic;html=1;exitX=0.5;exitY=1;exitDx=0;exitDy=0;entryX=0.5;entryY=0;entryDx=0;entryDy=0;" parent="1" source="q70gm7w3pCxZrdmaDDds-62" target="q70gm7w3pCxZrdmaDDds-110" edge="1">
                    <mxGeometry width="50" height="50" relative="1" as="geometry">
                        <mxPoint x="770" y="210" as="sourcePoint"/>
                        <mxPoint x="820" y="160" as="targetPoint"/>
                    </mxGeometry>
                </mxCell>
                <mxCell id="q70gm7w3pCxZrdmaDDds-112" value="density_realtime&lt;div&gt;fetcher&lt;/div&gt;" style="rounded=0;whiteSpace=wrap;html=1;" parent="1" vertex="1">
                    <mxGeometry x="400" y="240" width="120" height="60" as="geometry"/>
                </mxCell>
                <mxCell id="q70gm7w3pCxZrdmaDDds-113" value="서울시&lt;div&gt;&lt;span style=&quot;color: rgb(63, 63, 63); background-color: transparent;&quot;&gt;실시간 도시데이터&lt;/span&gt;&lt;/div&gt;&lt;div&gt;&lt;div&gt;API&lt;/div&gt;&lt;/div&gt;" style="rounded=0;whiteSpace=wrap;html=1;" parent="1" vertex="1">
                    <mxGeometry x="400" y="120" width="120" height="60" as="geometry"/>
                </mxCell>
                <mxCell id="q70gm7w3pCxZrdmaDDds-114" value="" style="edgeStyle=elbowEdgeStyle;elbow=vertical;endArrow=classic;html=1;curved=0;rounded=0;endSize=8;startSize=8;entryX=0.5;entryY=0;entryDx=0;entryDy=0;exitX=0.5;exitY=1;exitDx=0;exitDy=0;" parent="1" source="q70gm7w3pCxZrdmaDDds-113" target="q70gm7w3pCxZrdmaDDds-112" edge="1">
                    <mxGeometry width="50" height="50" relative="1" as="geometry">
                        <mxPoint x="80" y="400" as="sourcePoint"/>
                        <mxPoint x="460" y="240" as="targetPoint"/>
                    </mxGeometry>
                </mxCell>
                <mxCell id="q70gm7w3pCxZrdmaDDds-115" value="loop (5 minutes)" style="swimlane;whiteSpace=wrap;html=1;" parent="1" vertex="1">
                    <mxGeometry x="390" y="80" width="140" height="230" as="geometry"/>
                </mxCell>
                <mxCell id="q70gm7w3pCxZrdmaDDds-116" value="&lt;span style=&quot;color: rgb(0, 0, 0);&quot;&gt;loop (1 hour)&lt;/span&gt;" style="swimlane;whiteSpace=wrap;html=1;" parent="1" vertex="1">
                    <mxGeometry x="530" y="80" width="140" height="230" as="geometry"/>
                </mxCell>
                <mxCell id="q70gm7w3pCxZrdmaDDds-117" value="&lt;span style=&quot;color: rgb(0, 0, 0);&quot;&gt;loop (3 hours)&lt;/span&gt;" style="swimlane;whiteSpace=wrap;html=1;" parent="1" vertex="1">
                    <mxGeometry x="670" y="80" width="140" height="230" as="geometry"/>
                </mxCell>
                <mxCell id="q70gm7w3pCxZrdmaDDds-118" value="" style="edgeStyle=elbowEdgeStyle;elbow=vertical;endArrow=classic;html=1;curved=0;rounded=0;endSize=8;startSize=8;exitX=0.5;exitY=1;exitDx=0;exitDy=0;entryX=0.5;entryY=0;entryDx=0;entryDy=0;" parent="1" source="q70gm7w3pCxZrdmaDDds-115" target="q70gm7w3pCxZrdmaDDds-66" edge="1">
                    <mxGeometry width="50" height="50" relative="1" as="geometry">
                        <mxPoint x="440" y="370" as="sourcePoint"/>
                        <mxPoint x="490" y="320" as="targetPoint"/>
                    </mxGeometry>
                </mxCell>
                <mxCell id="q70gm7w3pCxZrdmaDDds-119" value="" style="edgeStyle=elbowEdgeStyle;elbow=vertical;endArrow=classic;html=1;curved=0;rounded=0;endSize=8;startSize=8;exitX=0.5;exitY=1;exitDx=0;exitDy=0;entryX=0.5;entryY=0;entryDx=0;entryDy=0;" parent="1" source="q70gm7w3pCxZrdmaDDds-117" target="q70gm7w3pCxZrdmaDDds-66" edge="1">
                    <mxGeometry width="50" height="50" relative="1" as="geometry">
                        <mxPoint x="470" y="320" as="sourcePoint"/>
                        <mxPoint x="610" y="360" as="targetPoint"/>
                    </mxGeometry>
                </mxCell>
                <mxCell id="q70gm7w3pCxZrdmaDDds-120" value="" style="endArrow=classic;html=1;entryX=0.5;entryY=0;entryDx=0;entryDy=0;exitX=0.5;exitY=1;exitDx=0;exitDy=0;" parent="1" source="q70gm7w3pCxZrdmaDDds-116" target="q70gm7w3pCxZrdmaDDds-66" edge="1">
                    <mxGeometry width="50" height="50" relative="1" as="geometry">
                        <mxPoint x="300" y="370" as="sourcePoint"/>
                        <mxPoint x="350" y="320" as="targetPoint"/>
                    </mxGeometry>
                </mxCell>
                <mxCell id="q70gm7w3pCxZrdmaDDds-128" value="&lt;h1 style=&quot;margin-top: 0px;&quot;&gt;아직 정리중입니다&lt;/h1&gt;&lt;p&gt;틀린 부분 제보 부탁드립니다!!&lt;/p&gt;" style="text;html=1;whiteSpace=wrap;overflow=hidden;rounded=0;" parent="1" vertex="1">
                    <mxGeometry x="-110" y="-20" width="410" height="90" as="geometry"/>
                </mxCell>
            </root>
        </mxGraphModel>
    </diagram>
    <diagram id="B81YD2aPMQMOC9tN-bwc" name="ERD">
        <mxGraphModel dx="1352" dy="802" grid="0" gridSize="10" guides="1" tooltips="1" connect="1" arrows="1" fold="1" page="0" pageScale="1" pageWidth="827" pageHeight="1169" background="#FEFAF6" math="0" shadow="0">
            <root>
                <mxCell id="0"/>
                <mxCell id="1" parent="0"/>
                <mxCell id="Mv2XLXqk8-CABhNJJQFS-1" value="&lt;font style=&quot;font-size: 24px;&quot;&gt;attraction&lt;/font&gt;" style="shape=table;startSize=40;container=1;collapsible=1;childLayout=tableLayout;fixedRows=1;rowLines=0;fontStyle=1;align=center;resizeLast=1;html=1;fillColor=#FEFAF6;gradientColor=none;" parent="1" vertex="1">
                    <mxGeometry x="560" y="320" width="420" height="280" as="geometry"/>
                </mxCell>
                <mxCell id="Mv2XLXqk8-CABhNJJQFS-2" value="" style="shape=tableRow;horizontal=0;startSize=0;swimlaneHead=0;swimlaneBody=0;fillColor=none;collapsible=0;dropTarget=0;points=[[0,0.5],[1,0.5]];portConstraint=eastwest;top=0;left=0;right=0;bottom=1;" parent="Mv2XLXqk8-CABhNJJQFS-1" vertex="1">
                    <mxGeometry y="40" width="420" height="40" as="geometry"/>
                </mxCell>
                <mxCell id="Mv2XLXqk8-CABhNJJQFS-3" value="&lt;font style=&quot;font-size: 15px;&quot;&gt;PK&lt;/font&gt;" style="shape=partialRectangle;connectable=0;fillColor=none;top=0;left=0;bottom=0;right=0;fontStyle=1;overflow=hidden;whiteSpace=wrap;html=1;" parent="Mv2XLXqk8-CABhNJJQFS-2" vertex="1">
                    <mxGeometry width="60" height="40" as="geometry">
                        <mxRectangle width="60" height="40" as="alternateBounds"/>
                    </mxGeometry>
                </mxCell>
                <mxCell id="Mv2XLXqk8-CABhNJJQFS-4" value="&lt;font style=&quot;font-size: 20px;&quot;&gt;id&lt;/font&gt;" style="shape=partialRectangle;connectable=0;fillColor=none;top=0;left=0;bottom=0;right=0;align=left;spacingLeft=6;fontStyle=5;overflow=hidden;whiteSpace=wrap;html=1;" parent="Mv2XLXqk8-CABhNJJQFS-2" vertex="1">
                    <mxGeometry x="60" width="360" height="40" as="geometry">
                        <mxRectangle width="360" height="40" as="alternateBounds"/>
                    </mxGeometry>
                </mxCell>
                <mxCell id="Mv2XLXqk8-CABhNJJQFS-5" value="" style="shape=tableRow;horizontal=0;startSize=0;swimlaneHead=0;swimlaneBody=0;fillColor=none;collapsible=0;dropTarget=0;points=[[0,0.5],[1,0.5]];portConstraint=eastwest;top=0;left=0;right=0;bottom=0;" parent="Mv2XLXqk8-CABhNJJQFS-1" vertex="1">
                    <mxGeometry y="80" width="420" height="200" as="geometry"/>
                </mxCell>
                <mxCell id="Mv2XLXqk8-CABhNJJQFS-6" value="" style="shape=partialRectangle;connectable=0;fillColor=none;top=0;left=0;bottom=0;right=0;editable=1;overflow=hidden;whiteSpace=wrap;html=1;" parent="Mv2XLXqk8-CABhNJJQFS-5" vertex="1">
                    <mxGeometry width="60" height="200" as="geometry">
                        <mxRectangle width="60" height="200" as="alternateBounds"/>
                    </mxGeometry>
                </mxCell>
                <mxCell id="Mv2XLXqk8-CABhNJJQFS-7" value="" style="shape=partialRectangle;connectable=0;fillColor=none;top=0;left=0;bottom=0;right=0;align=left;spacingLeft=6;overflow=hidden;whiteSpace=wrap;html=1;" parent="Mv2XLXqk8-CABhNJJQFS-5" vertex="1">
                    <mxGeometry x="60" width="360" height="200" as="geometry">
                        <mxRectangle width="360" height="200" as="alternateBounds"/>
                    </mxGeometry>
                </mxCell>
                <mxCell id="Mv2XLXqk8-CABhNJJQFS-139" value="&lt;font style=&quot;font-size: 24px;&quot;&gt;detail_raw&lt;/font&gt;" style="shape=table;startSize=40;container=1;collapsible=1;childLayout=tableLayout;fixedRows=1;rowLines=0;fontStyle=1;align=center;resizeLast=1;html=1;whiteSpace=wrap;fillColor=#FEFAF6;" parent="1" vertex="1">
                    <mxGeometry x="180" y="540" width="300" height="200" as="geometry"/>
                </mxCell>
                <mxCell id="Mv2XLXqk8-CABhNJJQFS-140" value="" style="shape=tableRow;horizontal=0;startSize=0;swimlaneHead=0;swimlaneBody=0;fillColor=none;collapsible=0;dropTarget=0;points=[[0,0.5],[1,0.5]];portConstraint=eastwest;top=0;left=0;right=0;bottom=1;html=1;" parent="Mv2XLXqk8-CABhNJJQFS-139" vertex="1">
                    <mxGeometry y="40" width="300" height="40" as="geometry"/>
                </mxCell>
                <mxCell id="Mv2XLXqk8-CABhNJJQFS-141" value="&lt;span style=&quot;color: rgb(0, 0, 0);&quot;&gt;&lt;font style=&quot;font-size: 15px;&quot;&gt;PK,FK1&lt;/font&gt;&lt;/span&gt;" style="shape=partialRectangle;connectable=0;fillColor=none;top=0;left=0;bottom=0;right=0;fontStyle=1;overflow=hidden;html=1;whiteSpace=wrap;" parent="Mv2XLXqk8-CABhNJJQFS-140" vertex="1">
                    <mxGeometry width="60" height="40" as="geometry">
                        <mxRectangle width="60" height="40" as="alternateBounds"/>
                    </mxGeometry>
                </mxCell>
                <mxCell id="Mv2XLXqk8-CABhNJJQFS-142" value="&lt;font style=&quot;font-size: 20px;&quot;&gt;id&lt;/font&gt;" style="shape=partialRectangle;connectable=0;fillColor=none;top=0;left=0;bottom=0;right=0;align=left;spacingLeft=6;fontStyle=5;overflow=hidden;html=1;whiteSpace=wrap;" parent="Mv2XLXqk8-CABhNJJQFS-140" vertex="1">
                    <mxGeometry x="60" width="240" height="40" as="geometry">
                        <mxRectangle width="240" height="40" as="alternateBounds"/>
                    </mxGeometry>
                </mxCell>
                <mxCell id="Mv2XLXqk8-CABhNJJQFS-143" value="" style="shape=tableRow;horizontal=0;startSize=0;swimlaneHead=0;swimlaneBody=0;fillColor=none;collapsible=0;dropTarget=0;points=[[0,0.5],[1,0.5]];portConstraint=eastwest;top=0;left=0;right=0;bottom=0;html=1;" parent="Mv2XLXqk8-CABhNJJQFS-139" vertex="1">
                    <mxGeometry y="80" width="300" height="30" as="geometry"/>
                </mxCell>
                <mxCell id="Mv2XLXqk8-CABhNJJQFS-144" value="" style="shape=partialRectangle;connectable=0;fillColor=none;top=0;left=0;bottom=0;right=0;editable=1;overflow=hidden;html=1;whiteSpace=wrap;" parent="Mv2XLXqk8-CABhNJJQFS-143" vertex="1">
                    <mxGeometry width="60" height="30" as="geometry">
                        <mxRectangle width="60" height="30" as="alternateBounds"/>
                    </mxGeometry>
                </mxCell>
                <mxCell id="Mv2XLXqk8-CABhNJJQFS-145" value="" style="shape=partialRectangle;connectable=0;fillColor=none;top=0;left=0;bottom=0;right=0;align=left;spacingLeft=6;overflow=hidden;html=1;whiteSpace=wrap;" parent="Mv2XLXqk8-CABhNJJQFS-143" vertex="1">
                    <mxGeometry x="60" width="240" height="30" as="geometry">
                        <mxRectangle width="240" height="30" as="alternateBounds"/>
                    </mxGeometry>
                </mxCell>
                <mxCell id="Mv2XLXqk8-CABhNJJQFS-146" value="" style="shape=tableRow;horizontal=0;startSize=0;swimlaneHead=0;swimlaneBody=0;fillColor=none;collapsible=0;dropTarget=0;points=[[0,0.5],[1,0.5]];portConstraint=eastwest;top=0;left=0;right=0;bottom=0;html=1;" parent="Mv2XLXqk8-CABhNJJQFS-139" vertex="1">
                    <mxGeometry y="110" width="300" height="90" as="geometry"/>
                </mxCell>
                <mxCell id="Mv2XLXqk8-CABhNJJQFS-147" value="" style="shape=partialRectangle;connectable=0;fillColor=none;top=0;left=0;bottom=0;right=0;editable=1;overflow=hidden;html=1;whiteSpace=wrap;" parent="Mv2XLXqk8-CABhNJJQFS-146" vertex="1">
                    <mxGeometry width="60" height="90" as="geometry">
                        <mxRectangle width="60" height="90" as="alternateBounds"/>
                    </mxGeometry>
                </mxCell>
                <mxCell id="Mv2XLXqk8-CABhNJJQFS-148" value="" style="shape=partialRectangle;connectable=0;fillColor=none;top=0;left=0;bottom=0;right=0;align=left;spacingLeft=6;overflow=hidden;html=1;whiteSpace=wrap;" parent="Mv2XLXqk8-CABhNJJQFS-146" vertex="1">
                    <mxGeometry x="60" width="240" height="90" as="geometry">
                        <mxRectangle width="240" height="90" as="alternateBounds"/>
                    </mxGeometry>
                </mxCell>
                <mxCell id="Mv2XLXqk8-CABhNJJQFS-149" value="" style="fontSize=12;html=1;endArrow=ERmandOne;startArrow=ERmandOne;entryX=0;entryY=0.5;entryDx=0;entryDy=0;edgeStyle=elbowEdgeStyle;exitX=0;exitY=0.5;exitDx=0;exitDy=0;" parent="1" source="Mv2XLXqk8-CABhNJJQFS-151" target="Mv2XLXqk8-CABhNJJQFS-140" edge="1">
                    <mxGeometry width="100" height="100" relative="1" as="geometry">
                        <mxPoint x="180" y="450" as="sourcePoint"/>
                        <mxPoint x="194" y="550" as="targetPoint"/>
                        <Array as="points">
                            <mxPoint x="140" y="450"/>
                        </Array>
                    </mxGeometry>
                </mxCell>
                <mxCell id="Mv2XLXqk8-CABhNJJQFS-150" value="&lt;font style=&quot;font-size: 24px;&quot;&gt;detail_cache&lt;/font&gt;" style="shape=table;startSize=40;container=1;collapsible=1;childLayout=tableLayout;fixedRows=1;rowLines=0;fontStyle=1;align=center;resizeLast=1;html=1;whiteSpace=wrap;fillColor=#FEFAF6;" parent="1" vertex="1">
                    <mxGeometry x="180" y="260" width="300" height="200" as="geometry"/>
                </mxCell>
                <mxCell id="Mv2XLXqk8-CABhNJJQFS-151" value="" style="shape=tableRow;horizontal=0;startSize=0;swimlaneHead=0;swimlaneBody=0;fillColor=none;collapsible=0;dropTarget=0;points=[[0,0.5],[1,0.5]];portConstraint=eastwest;top=0;left=0;right=0;bottom=1;html=1;" parent="Mv2XLXqk8-CABhNJJQFS-150" vertex="1">
                    <mxGeometry y="40" width="300" height="40" as="geometry"/>
                </mxCell>
                <mxCell id="Mv2XLXqk8-CABhNJJQFS-152" value="&lt;span style=&quot;color: rgb(0, 0, 0);&quot;&gt;&lt;font style=&quot;font-size: 15px;&quot;&gt;PK,FK1&lt;/font&gt;&lt;/span&gt;" style="shape=partialRectangle;connectable=0;fillColor=none;top=0;left=0;bottom=0;right=0;fontStyle=1;overflow=hidden;html=1;whiteSpace=wrap;" parent="Mv2XLXqk8-CABhNJJQFS-151" vertex="1">
                    <mxGeometry width="60" height="40" as="geometry">
                        <mxRectangle width="60" height="40" as="alternateBounds"/>
                    </mxGeometry>
                </mxCell>
                <mxCell id="Mv2XLXqk8-CABhNJJQFS-153" value="&lt;font style=&quot;font-size: 20px;&quot;&gt;id&lt;/font&gt;" style="shape=partialRectangle;connectable=0;fillColor=none;top=0;left=0;bottom=0;right=0;align=left;spacingLeft=6;fontStyle=5;overflow=hidden;html=1;whiteSpace=wrap;" parent="Mv2XLXqk8-CABhNJJQFS-151" vertex="1">
                    <mxGeometry x="60" width="240" height="40" as="geometry">
                        <mxRectangle width="240" height="40" as="alternateBounds"/>
                    </mxGeometry>
                </mxCell>
                <mxCell id="Mv2XLXqk8-CABhNJJQFS-154" value="" style="shape=tableRow;horizontal=0;startSize=0;swimlaneHead=0;swimlaneBody=0;fillColor=none;collapsible=0;dropTarget=0;points=[[0,0.5],[1,0.5]];portConstraint=eastwest;top=0;left=0;right=0;bottom=0;html=1;" parent="Mv2XLXqk8-CABhNJJQFS-150" vertex="1">
                    <mxGeometry y="80" width="300" height="30" as="geometry"/>
                </mxCell>
                <mxCell id="Mv2XLXqk8-CABhNJJQFS-155" value="" style="shape=partialRectangle;connectable=0;fillColor=none;top=0;left=0;bottom=0;right=0;editable=1;overflow=hidden;html=1;whiteSpace=wrap;" parent="Mv2XLXqk8-CABhNJJQFS-154" vertex="1">
                    <mxGeometry width="60" height="30" as="geometry">
                        <mxRectangle width="60" height="30" as="alternateBounds"/>
                    </mxGeometry>
                </mxCell>
                <mxCell id="Mv2XLXqk8-CABhNJJQFS-156" value="" style="shape=partialRectangle;connectable=0;fillColor=none;top=0;left=0;bottom=0;right=0;align=left;spacingLeft=6;overflow=hidden;html=1;whiteSpace=wrap;" parent="Mv2XLXqk8-CABhNJJQFS-154" vertex="1">
                    <mxGeometry x="60" width="240" height="30" as="geometry">
                        <mxRectangle width="240" height="30" as="alternateBounds"/>
                    </mxGeometry>
                </mxCell>
                <mxCell id="Mv2XLXqk8-CABhNJJQFS-157" value="" style="shape=tableRow;horizontal=0;startSize=0;swimlaneHead=0;swimlaneBody=0;fillColor=none;collapsible=0;dropTarget=0;points=[[0,0.5],[1,0.5]];portConstraint=eastwest;top=0;left=0;right=0;bottom=0;html=1;" parent="Mv2XLXqk8-CABhNJJQFS-150" vertex="1">
                    <mxGeometry y="110" width="300" height="90" as="geometry"/>
                </mxCell>
                <mxCell id="Mv2XLXqk8-CABhNJJQFS-158" value="" style="shape=partialRectangle;connectable=0;fillColor=none;top=0;left=0;bottom=0;right=0;editable=1;overflow=hidden;html=1;whiteSpace=wrap;" parent="Mv2XLXqk8-CABhNJJQFS-157" vertex="1">
                    <mxGeometry width="60" height="90" as="geometry">
                        <mxRectangle width="60" height="90" as="alternateBounds"/>
                    </mxGeometry>
                </mxCell>
                <mxCell id="Mv2XLXqk8-CABhNJJQFS-159" value="" style="shape=partialRectangle;connectable=0;fillColor=none;top=0;left=0;bottom=0;right=0;align=left;spacingLeft=6;overflow=hidden;html=1;whiteSpace=wrap;" parent="Mv2XLXqk8-CABhNJJQFS-157" vertex="1">
                    <mxGeometry x="60" width="240" height="90" as="geometry">
                        <mxRectangle width="240" height="90" as="alternateBounds"/>
                    </mxGeometry>
                </mxCell>
                <mxCell id="Mv2XLXqk8-CABhNJJQFS-180" value="" style="edgeStyle=elbowEdgeStyle;fontSize=12;html=1;endArrow=ERmandOne;startArrow=ERmandOne;entryX=0;entryY=0.5;entryDx=0;entryDy=0;" parent="1" source="Mv2XLXqk8-CABhNJJQFS-140" target="Mv2XLXqk8-CABhNJJQFS-2" edge="1">
                    <mxGeometry width="100" height="100" relative="1" as="geometry">
                        <mxPoint x="560" y="500" as="sourcePoint"/>
                        <mxPoint x="660" y="400" as="targetPoint"/>
                    </mxGeometry>
                </mxCell>
                <mxCell id="Mv2XLXqk8-CABhNJJQFS-217" value="&lt;font style=&quot;font-size: 24px;&quot;&gt;bike_station_info&lt;/font&gt;" style="shape=table;startSize=40;container=1;collapsible=1;childLayout=tableLayout;fixedRows=1;rowLines=0;fontStyle=1;align=center;resizeLast=1;html=1;whiteSpace=wrap;fillColor=#FEFAF6;" parent="1" vertex="1">
                    <mxGeometry x="600" y="80" width="300" height="200" as="geometry"/>
                </mxCell>
                <mxCell id="Mv2XLXqk8-CABhNJJQFS-218" value="" style="shape=tableRow;horizontal=0;startSize=0;swimlaneHead=0;swimlaneBody=0;fillColor=none;collapsible=0;dropTarget=0;points=[[0,0.5],[1,0.5]];portConstraint=eastwest;top=0;left=0;right=0;bottom=0;html=1;" parent="Mv2XLXqk8-CABhNJJQFS-217" vertex="1">
                    <mxGeometry y="40" width="300" height="40" as="geometry"/>
                </mxCell>
                <mxCell id="Mv2XLXqk8-CABhNJJQFS-219" value="PK,FK1" style="shape=partialRectangle;connectable=0;fillColor=none;top=0;left=0;bottom=0;right=0;fontStyle=1;overflow=hidden;html=1;whiteSpace=wrap;fontSize=15;" parent="Mv2XLXqk8-CABhNJJQFS-218" vertex="1">
                    <mxGeometry width="60" height="40" as="geometry">
                        <mxRectangle width="60" height="40" as="alternateBounds"/>
                    </mxGeometry>
                </mxCell>
                <mxCell id="Mv2XLXqk8-CABhNJJQFS-220" value="id" style="shape=partialRectangle;connectable=0;fillColor=none;top=0;left=0;bottom=0;right=0;align=left;spacingLeft=6;fontStyle=5;overflow=hidden;html=1;whiteSpace=wrap;fontSize=20;" parent="Mv2XLXqk8-CABhNJJQFS-218" vertex="1">
                    <mxGeometry x="60" width="240" height="40" as="geometry">
                        <mxRectangle width="240" height="40" as="alternateBounds"/>
                    </mxGeometry>
                </mxCell>
                <mxCell id="Mv2XLXqk8-CABhNJJQFS-221" value="" style="shape=tableRow;horizontal=0;startSize=0;swimlaneHead=0;swimlaneBody=0;fillColor=none;collapsible=0;dropTarget=0;points=[[0,0.5],[1,0.5]];portConstraint=eastwest;top=0;left=0;right=0;bottom=1;html=1;" parent="Mv2XLXqk8-CABhNJJQFS-217" vertex="1">
                    <mxGeometry y="80" width="300" height="40" as="geometry"/>
                </mxCell>
                <mxCell id="Mv2XLXqk8-CABhNJJQFS-222" value="PK" style="shape=partialRectangle;connectable=0;fillColor=none;top=0;left=0;bottom=0;right=0;fontStyle=1;overflow=hidden;html=1;whiteSpace=wrap;fontSize=15;" parent="Mv2XLXqk8-CABhNJJQFS-221" vertex="1">
                    <mxGeometry width="60" height="40" as="geometry">
                        <mxRectangle width="60" height="40" as="alternateBounds"/>
                    </mxGeometry>
                </mxCell>
                <mxCell id="Mv2XLXqk8-CABhNJJQFS-223" value="station_id" style="shape=partialRectangle;connectable=0;fillColor=none;top=0;left=0;bottom=0;right=0;align=left;spacingLeft=6;fontStyle=5;overflow=hidden;html=1;whiteSpace=wrap;fontSize=20;" parent="Mv2XLXqk8-CABhNJJQFS-221" vertex="1">
                    <mxGeometry x="60" width="240" height="40" as="geometry">
                        <mxRectangle width="240" height="40" as="alternateBounds"/>
                    </mxGeometry>
                </mxCell>
                <mxCell id="Mv2XLXqk8-CABhNJJQFS-224" value="" style="shape=tableRow;horizontal=0;startSize=0;swimlaneHead=0;swimlaneBody=0;fillColor=none;collapsible=0;dropTarget=0;points=[[0,0.5],[1,0.5]];portConstraint=eastwest;top=0;left=0;right=0;bottom=0;html=1;" parent="Mv2XLXqk8-CABhNJJQFS-217" vertex="1">
                    <mxGeometry y="120" width="300" height="30" as="geometry"/>
                </mxCell>
                <mxCell id="Mv2XLXqk8-CABhNJJQFS-225" value="" style="shape=partialRectangle;connectable=0;fillColor=none;top=0;left=0;bottom=0;right=0;editable=1;overflow=hidden;html=1;whiteSpace=wrap;" parent="Mv2XLXqk8-CABhNJJQFS-224" vertex="1">
                    <mxGeometry width="60" height="30" as="geometry">
                        <mxRectangle width="60" height="30" as="alternateBounds"/>
                    </mxGeometry>
                </mxCell>
                <mxCell id="Mv2XLXqk8-CABhNJJQFS-226" value="" style="shape=partialRectangle;connectable=0;fillColor=none;top=0;left=0;bottom=0;right=0;align=left;spacingLeft=6;overflow=hidden;html=1;whiteSpace=wrap;" parent="Mv2XLXqk8-CABhNJJQFS-224" vertex="1">
                    <mxGeometry x="60" width="240" height="30" as="geometry">
                        <mxRectangle width="240" height="30" as="alternateBounds"/>
                    </mxGeometry>
                </mxCell>
                <mxCell id="Mv2XLXqk8-CABhNJJQFS-227" value="" style="shape=tableRow;horizontal=0;startSize=0;swimlaneHead=0;swimlaneBody=0;fillColor=none;collapsible=0;dropTarget=0;points=[[0,0.5],[1,0.5]];portConstraint=eastwest;top=0;left=0;right=0;bottom=0;html=1;" parent="Mv2XLXqk8-CABhNJJQFS-217" vertex="1">
                    <mxGeometry y="150" width="300" height="50" as="geometry"/>
                </mxCell>
                <mxCell id="Mv2XLXqk8-CABhNJJQFS-228" value="" style="shape=partialRectangle;connectable=0;fillColor=none;top=0;left=0;bottom=0;right=0;editable=1;overflow=hidden;html=1;whiteSpace=wrap;" parent="Mv2XLXqk8-CABhNJJQFS-227" vertex="1">
                    <mxGeometry width="60" height="50" as="geometry">
                        <mxRectangle width="60" height="50" as="alternateBounds"/>
                    </mxGeometry>
                </mxCell>
                <mxCell id="Mv2XLXqk8-CABhNJJQFS-229" value="" style="shape=partialRectangle;connectable=0;fillColor=none;top=0;left=0;bottom=0;right=0;align=left;spacingLeft=6;overflow=hidden;html=1;whiteSpace=wrap;" parent="Mv2XLXqk8-CABhNJJQFS-227" vertex="1">
                    <mxGeometry x="60" width="240" height="50" as="geometry">
                        <mxRectangle width="240" height="50" as="alternateBounds"/>
                    </mxGeometry>
                </mxCell>
                <mxCell id="Mv2XLXqk8-CABhNJJQFS-231" value="&lt;font style=&quot;font-size: 24px;&quot;&gt;density_raw&lt;/font&gt;" style="shape=table;startSize=40;container=1;collapsible=1;childLayout=tableLayout;fixedRows=1;rowLines=0;fontStyle=1;align=center;resizeLast=1;html=1;whiteSpace=wrap;fillColor=#FEFAF6;" parent="1" vertex="1">
                    <mxGeometry x="600" y="640" width="300" height="160" as="geometry"/>
                </mxCell>
                <mxCell id="Mv2XLXqk8-CABhNJJQFS-232" value="" style="shape=tableRow;horizontal=0;startSize=0;swimlaneHead=0;swimlaneBody=0;fillColor=none;collapsible=0;dropTarget=0;points=[[0,0.5],[1,0.5]];portConstraint=eastwest;top=0;left=0;right=0;bottom=0;html=1;" parent="Mv2XLXqk8-CABhNJJQFS-231" vertex="1">
                    <mxGeometry y="40" width="300" height="40" as="geometry"/>
                </mxCell>
                <mxCell id="Mv2XLXqk8-CABhNJJQFS-233" value="PK,FK1" style="shape=partialRectangle;connectable=0;fillColor=none;top=0;left=0;bottom=0;right=0;fontStyle=1;overflow=hidden;html=1;whiteSpace=wrap;fontSize=15;" parent="Mv2XLXqk8-CABhNJJQFS-232" vertex="1">
                    <mxGeometry width="60" height="40" as="geometry">
                        <mxRectangle width="60" height="40" as="alternateBounds"/>
                    </mxGeometry>
                </mxCell>
                <mxCell id="Mv2XLXqk8-CABhNJJQFS-234" value="id" style="shape=partialRectangle;connectable=0;fillColor=none;top=0;left=0;bottom=0;right=0;align=left;spacingLeft=6;fontStyle=5;overflow=hidden;html=1;whiteSpace=wrap;fontSize=20;" parent="Mv2XLXqk8-CABhNJJQFS-232" vertex="1">
                    <mxGeometry x="60" width="240" height="40" as="geometry">
                        <mxRectangle width="240" height="40" as="alternateBounds"/>
                    </mxGeometry>
                </mxCell>
                <mxCell id="Mv2XLXqk8-CABhNJJQFS-235" value="" style="shape=tableRow;horizontal=0;startSize=0;swimlaneHead=0;swimlaneBody=0;fillColor=none;collapsible=0;dropTarget=0;points=[[0,0.5],[1,0.5]];portConstraint=eastwest;top=0;left=0;right=0;bottom=1;html=1;" parent="Mv2XLXqk8-CABhNJJQFS-231" vertex="1">
                    <mxGeometry y="80" width="300" height="40" as="geometry"/>
                </mxCell>
                <mxCell id="Mv2XLXqk8-CABhNJJQFS-236" value="PK" style="shape=partialRectangle;connectable=0;fillColor=none;top=0;left=0;bottom=0;right=0;fontStyle=1;overflow=hidden;html=1;whiteSpace=wrap;fontSize=15;" parent="Mv2XLXqk8-CABhNJJQFS-235" vertex="1">
                    <mxGeometry width="60" height="40" as="geometry">
                        <mxRectangle width="60" height="40" as="alternateBounds"/>
                    </mxGeometry>
                </mxCell>
                <mxCell id="Mv2XLXqk8-CABhNJJQFS-237" value="fcst_dt" style="shape=partialRectangle;connectable=0;fillColor=none;top=0;left=0;bottom=0;right=0;align=left;spacingLeft=6;fontStyle=5;overflow=hidden;html=1;whiteSpace=wrap;fontSize=20;" parent="Mv2XLXqk8-CABhNJJQFS-235" vertex="1">
                    <mxGeometry x="60" width="240" height="40" as="geometry">
                        <mxRectangle width="240" height="40" as="alternateBounds"/>
                    </mxGeometry>
                </mxCell>
                <mxCell id="Mv2XLXqk8-CABhNJJQFS-238" value="" style="shape=tableRow;horizontal=0;startSize=0;swimlaneHead=0;swimlaneBody=0;fillColor=none;collapsible=0;dropTarget=0;points=[[0,0.5],[1,0.5]];portConstraint=eastwest;top=0;left=0;right=0;bottom=0;html=1;" parent="Mv2XLXqk8-CABhNJJQFS-231" vertex="1">
                    <mxGeometry y="120" width="300" height="40" as="geometry"/>
                </mxCell>
                <mxCell id="Mv2XLXqk8-CABhNJJQFS-239" value="" style="shape=partialRectangle;connectable=0;fillColor=none;top=0;left=0;bottom=0;right=0;editable=1;overflow=hidden;html=1;whiteSpace=wrap;" parent="Mv2XLXqk8-CABhNJJQFS-238" vertex="1">
                    <mxGeometry width="60" height="40" as="geometry">
                        <mxRectangle width="60" height="40" as="alternateBounds"/>
                    </mxGeometry>
                </mxCell>
                <mxCell id="Mv2XLXqk8-CABhNJJQFS-240" value="" style="shape=partialRectangle;connectable=0;fillColor=none;top=0;left=0;bottom=0;right=0;align=left;spacingLeft=6;overflow=hidden;html=1;whiteSpace=wrap;" parent="Mv2XLXqk8-CABhNJJQFS-238" vertex="1">
                    <mxGeometry x="60" width="240" height="40" as="geometry">
                        <mxRectangle width="240" height="40" as="alternateBounds"/>
                    </mxGeometry>
                </mxCell>
                <mxCell id="Mv2XLXqk8-CABhNJJQFS-284" value="" style="edgeStyle=elbowEdgeStyle;fontSize=12;html=1;endArrow=ERmany;startArrow=ERmandOne;exitX=0;exitY=0.5;exitDx=0;exitDy=0;entryX=0;entryY=0.5;entryDx=0;entryDy=0;startFill=0;endFill=0;" parent="1" source="Mv2XLXqk8-CABhNJJQFS-2" target="Mv2XLXqk8-CABhNJJQFS-218" edge="1">
                    <mxGeometry width="100" height="100" relative="1" as="geometry">
                        <mxPoint x="630" y="410" as="sourcePoint"/>
                        <mxPoint x="730" y="310" as="targetPoint"/>
                        <Array as="points">
                            <mxPoint x="540" y="240"/>
                        </Array>
                    </mxGeometry>
                </mxCell>
                <mxCell id="Mv2XLXqk8-CABhNJJQFS-287" value="" style="edgeStyle=elbowEdgeStyle;fontSize=12;html=1;endArrow=ERmandOne;startArrow=ERoneToMany;entryX=0;entryY=0.5;entryDx=0;entryDy=0;exitX=0;exitY=0.5;exitDx=0;exitDy=0;endFill=0;startFill=0;" parent="1" source="Mv2XLXqk8-CABhNJJQFS-232" target="Mv2XLXqk8-CABhNJJQFS-2" edge="1">
                    <mxGeometry width="100" height="100" relative="1" as="geometry">
                        <mxPoint x="630" y="620" as="sourcePoint"/>
                        <mxPoint x="730" y="520" as="targetPoint"/>
                        <Array as="points">
                            <mxPoint x="540" y="580"/>
                        </Array>
                    </mxGeometry>
                </mxCell>
                <mxCell id="Mv2XLXqk8-CABhNJJQFS-288" value="&lt;font style=&quot;font-size: 24px;&quot;&gt;density_cache&lt;/font&gt;" style="shape=table;startSize=40;container=1;collapsible=1;childLayout=tableLayout;fixedRows=1;rowLines=0;fontStyle=1;align=center;resizeLast=1;html=1;whiteSpace=wrap;fillColor=#FEFAF6;" parent="1" vertex="1">
                    <mxGeometry x="1000" y="640" width="300" height="160" as="geometry"/>
                </mxCell>
                <mxCell id="Mv2XLXqk8-CABhNJJQFS-289" value="" style="shape=tableRow;horizontal=0;startSize=0;swimlaneHead=0;swimlaneBody=0;fillColor=none;collapsible=0;dropTarget=0;points=[[0,0.5],[1,0.5]];portConstraint=eastwest;top=0;left=0;right=0;bottom=0;html=1;" parent="Mv2XLXqk8-CABhNJJQFS-288" vertex="1">
                    <mxGeometry y="40" width="300" height="40" as="geometry"/>
                </mxCell>
                <mxCell id="Mv2XLXqk8-CABhNJJQFS-290" value="PK,FK1" style="shape=partialRectangle;connectable=0;fillColor=none;top=0;left=0;bottom=0;right=0;fontStyle=1;overflow=hidden;html=1;whiteSpace=wrap;fontSize=15;" parent="Mv2XLXqk8-CABhNJJQFS-289" vertex="1">
                    <mxGeometry width="60" height="40" as="geometry">
                        <mxRectangle width="60" height="40" as="alternateBounds"/>
                    </mxGeometry>
                </mxCell>
                <mxCell id="Mv2XLXqk8-CABhNJJQFS-291" value="id" style="shape=partialRectangle;connectable=0;fillColor=none;top=0;left=0;bottom=0;right=0;align=left;spacingLeft=6;fontStyle=5;overflow=hidden;html=1;whiteSpace=wrap;fontSize=20;" parent="Mv2XLXqk8-CABhNJJQFS-289" vertex="1">
                    <mxGeometry x="60" width="240" height="40" as="geometry">
                        <mxRectangle width="240" height="40" as="alternateBounds"/>
                    </mxGeometry>
                </mxCell>
                <mxCell id="Mv2XLXqk8-CABhNJJQFS-292" value="" style="shape=tableRow;horizontal=0;startSize=0;swimlaneHead=0;swimlaneBody=0;fillColor=none;collapsible=0;dropTarget=0;points=[[0,0.5],[1,0.5]];portConstraint=eastwest;top=0;left=0;right=0;bottom=1;html=1;" parent="Mv2XLXqk8-CABhNJJQFS-288" vertex="1">
                    <mxGeometry y="80" width="300" height="40" as="geometry"/>
                </mxCell>
                <mxCell id="Mv2XLXqk8-CABhNJJQFS-293" value="PK" style="shape=partialRectangle;connectable=0;fillColor=none;top=0;left=0;bottom=0;right=0;fontStyle=1;overflow=hidden;html=1;whiteSpace=wrap;fontSize=15;" parent="Mv2XLXqk8-CABhNJJQFS-292" vertex="1">
                    <mxGeometry width="60" height="40" as="geometry">
                        <mxRectangle width="60" height="40" as="alternateBounds"/>
                    </mxGeometry>
                </mxCell>
                <mxCell id="Mv2XLXqk8-CABhNJJQFS-294" value="fcst_dt" style="shape=partialRectangle;connectable=0;fillColor=none;top=0;left=0;bottom=0;right=0;align=left;spacingLeft=6;fontStyle=5;overflow=hidden;html=1;whiteSpace=wrap;fontSize=20;" parent="Mv2XLXqk8-CABhNJJQFS-292" vertex="1">
                    <mxGeometry x="60" width="240" height="40" as="geometry">
                        <mxRectangle width="240" height="40" as="alternateBounds"/>
                    </mxGeometry>
                </mxCell>
                <mxCell id="Mv2XLXqk8-CABhNJJQFS-295" value="" style="shape=tableRow;horizontal=0;startSize=0;swimlaneHead=0;swimlaneBody=0;fillColor=none;collapsible=0;dropTarget=0;points=[[0,0.5],[1,0.5]];portConstraint=eastwest;top=0;left=0;right=0;bottom=0;html=1;" parent="Mv2XLXqk8-CABhNJJQFS-288" vertex="1">
                    <mxGeometry y="120" width="300" height="40" as="geometry"/>
                </mxCell>
                <mxCell id="Mv2XLXqk8-CABhNJJQFS-296" value="" style="shape=partialRectangle;connectable=0;fillColor=none;top=0;left=0;bottom=0;right=0;editable=1;overflow=hidden;html=1;whiteSpace=wrap;" parent="Mv2XLXqk8-CABhNJJQFS-295" vertex="1">
                    <mxGeometry width="60" height="40" as="geometry">
                        <mxRectangle width="60" height="40" as="alternateBounds"/>
                    </mxGeometry>
                </mxCell>
                <mxCell id="Mv2XLXqk8-CABhNJJQFS-297" value="" style="shape=partialRectangle;connectable=0;fillColor=none;top=0;left=0;bottom=0;right=0;align=left;spacingLeft=6;overflow=hidden;html=1;whiteSpace=wrap;" parent="Mv2XLXqk8-CABhNJJQFS-295" vertex="1">
                    <mxGeometry x="60" width="240" height="40" as="geometry">
                        <mxRectangle width="240" height="40" as="alternateBounds"/>
                    </mxGeometry>
                </mxCell>
                <mxCell id="Mv2XLXqk8-CABhNJJQFS-298" value="" style="fontSize=12;html=1;endArrow=ERmandOne;startArrow=ERmandOne;exitX=1.002;exitY=0.004;exitDx=0;exitDy=0;exitPerimeter=0;entryX=0.001;entryY=0.001;entryDx=0;entryDy=0;entryPerimeter=0;" parent="1" source="Mv2XLXqk8-CABhNJJQFS-235" target="Mv2XLXqk8-CABhNJJQFS-292" edge="1">
                    <mxGeometry width="100" height="100" relative="1" as="geometry">
                        <mxPoint x="630" y="560" as="sourcePoint"/>
                        <mxPoint x="900" y="720" as="targetPoint"/>
                    </mxGeometry>
                </mxCell>
                <mxCell id="Mv2XLXqk8-CABhNJJQFS-300" value="&lt;font style=&quot;font-size: 24px;&quot;&gt;weather_raw&lt;/font&gt;" style="shape=table;startSize=40;container=1;collapsible=1;childLayout=tableLayout;fixedRows=1;rowLines=0;fontStyle=1;align=center;resizeLast=1;html=1;whiteSpace=wrap;fillColor=#FEFAF6;" parent="1" vertex="1">
                    <mxGeometry x="1060" y="400" width="300" height="200" as="geometry"/>
                </mxCell>
                <mxCell id="Mv2XLXqk8-CABhNJJQFS-301" value="" style="shape=tableRow;horizontal=0;startSize=0;swimlaneHead=0;swimlaneBody=0;fillColor=none;collapsible=0;dropTarget=0;points=[[0,0.5],[1,0.5]];portConstraint=eastwest;top=0;left=0;right=0;bottom=0;html=1;" parent="Mv2XLXqk8-CABhNJJQFS-300" vertex="1">
                    <mxGeometry y="40" width="300" height="40" as="geometry"/>
                </mxCell>
                <mxCell id="Mv2XLXqk8-CABhNJJQFS-302" value="PK,FK1" style="shape=partialRectangle;connectable=0;fillColor=none;top=0;left=0;bottom=0;right=0;fontStyle=1;overflow=hidden;html=1;whiteSpace=wrap;fontSize=15;" parent="Mv2XLXqk8-CABhNJJQFS-301" vertex="1">
                    <mxGeometry width="60" height="40" as="geometry">
                        <mxRectangle width="60" height="40" as="alternateBounds"/>
                    </mxGeometry>
                </mxCell>
                <mxCell id="Mv2XLXqk8-CABhNJJQFS-303" value="id" style="shape=partialRectangle;connectable=0;fillColor=none;top=0;left=0;bottom=0;right=0;align=left;spacingLeft=6;fontStyle=5;overflow=hidden;html=1;whiteSpace=wrap;fontSize=20;" parent="Mv2XLXqk8-CABhNJJQFS-301" vertex="1">
                    <mxGeometry x="60" width="240" height="40" as="geometry">
                        <mxRectangle width="240" height="40" as="alternateBounds"/>
                    </mxGeometry>
                </mxCell>
                <mxCell id="Mv2XLXqk8-CABhNJJQFS-304" value="" style="shape=tableRow;horizontal=0;startSize=0;swimlaneHead=0;swimlaneBody=0;fillColor=none;collapsible=0;dropTarget=0;points=[[0,0.5],[1,0.5]];portConstraint=eastwest;top=0;left=0;right=0;bottom=1;html=1;" parent="Mv2XLXqk8-CABhNJJQFS-300" vertex="1">
                    <mxGeometry y="80" width="300" height="40" as="geometry"/>
                </mxCell>
                <mxCell id="Mv2XLXqk8-CABhNJJQFS-305" value="PK" style="shape=partialRectangle;connectable=0;fillColor=none;top=0;left=0;bottom=0;right=0;fontStyle=1;overflow=hidden;html=1;whiteSpace=wrap;fontSize=15;" parent="Mv2XLXqk8-CABhNJJQFS-304" vertex="1">
                    <mxGeometry width="60" height="40" as="geometry">
                        <mxRectangle width="60" height="40" as="alternateBounds"/>
                    </mxGeometry>
                </mxCell>
                <mxCell id="Mv2XLXqk8-CABhNJJQFS-306" value="fcst_dt" style="shape=partialRectangle;connectable=0;fillColor=none;top=0;left=0;bottom=0;right=0;align=left;spacingLeft=6;fontStyle=5;overflow=hidden;html=1;whiteSpace=wrap;fontSize=20;" parent="Mv2XLXqk8-CABhNJJQFS-304" vertex="1">
                    <mxGeometry x="60" width="240" height="40" as="geometry">
                        <mxRectangle width="240" height="40" as="alternateBounds"/>
                    </mxGeometry>
                </mxCell>
                <mxCell id="Mv2XLXqk8-CABhNJJQFS-307" value="" style="shape=tableRow;horizontal=0;startSize=0;swimlaneHead=0;swimlaneBody=0;fillColor=none;collapsible=0;dropTarget=0;points=[[0,0.5],[1,0.5]];portConstraint=eastwest;top=0;left=0;right=0;bottom=0;html=1;" parent="Mv2XLXqk8-CABhNJJQFS-300" vertex="1">
                    <mxGeometry y="120" width="300" height="80" as="geometry"/>
                </mxCell>
                <mxCell id="Mv2XLXqk8-CABhNJJQFS-308" value="" style="shape=partialRectangle;connectable=0;fillColor=none;top=0;left=0;bottom=0;right=0;editable=1;overflow=hidden;html=1;whiteSpace=wrap;" parent="Mv2XLXqk8-CABhNJJQFS-307" vertex="1">
                    <mxGeometry width="60" height="80" as="geometry">
                        <mxRectangle width="60" height="80" as="alternateBounds"/>
                    </mxGeometry>
                </mxCell>
                <mxCell id="Mv2XLXqk8-CABhNJJQFS-309" value="" style="shape=partialRectangle;connectable=0;fillColor=none;top=0;left=0;bottom=0;right=0;align=left;spacingLeft=6;overflow=hidden;html=1;whiteSpace=wrap;" parent="Mv2XLXqk8-CABhNJJQFS-307" vertex="1">
                    <mxGeometry x="60" width="240" height="80" as="geometry">
                        <mxRectangle width="240" height="80" as="alternateBounds"/>
                    </mxGeometry>
                </mxCell>
                <mxCell id="Mv2XLXqk8-CABhNJJQFS-311" value="&lt;font style=&quot;font-size: 24px;&quot;&gt;weather_raw&lt;/font&gt;" style="shape=table;startSize=40;container=1;collapsible=1;childLayout=tableLayout;fixedRows=1;rowLines=0;fontStyle=1;align=center;resizeLast=1;html=1;whiteSpace=wrap;fillColor=#FEFAF6;" parent="1" vertex="1">
                    <mxGeometry x="1060" y="120" width="300" height="200" as="geometry"/>
                </mxCell>
                <mxCell id="Mv2XLXqk8-CABhNJJQFS-312" value="" style="shape=tableRow;horizontal=0;startSize=0;swimlaneHead=0;swimlaneBody=0;fillColor=none;collapsible=0;dropTarget=0;points=[[0,0.5],[1,0.5]];portConstraint=eastwest;top=0;left=0;right=0;bottom=0;html=1;" parent="Mv2XLXqk8-CABhNJJQFS-311" vertex="1">
                    <mxGeometry y="40" width="300" height="40" as="geometry"/>
                </mxCell>
                <mxCell id="Mv2XLXqk8-CABhNJJQFS-313" value="PK,FK1" style="shape=partialRectangle;connectable=0;fillColor=none;top=0;left=0;bottom=0;right=0;fontStyle=1;overflow=hidden;html=1;whiteSpace=wrap;fontSize=15;" parent="Mv2XLXqk8-CABhNJJQFS-312" vertex="1">
                    <mxGeometry width="60" height="40" as="geometry">
                        <mxRectangle width="60" height="40" as="alternateBounds"/>
                    </mxGeometry>
                </mxCell>
                <mxCell id="Mv2XLXqk8-CABhNJJQFS-314" value="id" style="shape=partialRectangle;connectable=0;fillColor=none;top=0;left=0;bottom=0;right=0;align=left;spacingLeft=6;fontStyle=5;overflow=hidden;html=1;whiteSpace=wrap;fontSize=20;" parent="Mv2XLXqk8-CABhNJJQFS-312" vertex="1">
                    <mxGeometry x="60" width="240" height="40" as="geometry">
                        <mxRectangle width="240" height="40" as="alternateBounds"/>
                    </mxGeometry>
                </mxCell>
                <mxCell id="Mv2XLXqk8-CABhNJJQFS-315" value="" style="shape=tableRow;horizontal=0;startSize=0;swimlaneHead=0;swimlaneBody=0;fillColor=none;collapsible=0;dropTarget=0;points=[[0,0.5],[1,0.5]];portConstraint=eastwest;top=0;left=0;right=0;bottom=1;html=1;" parent="Mv2XLXqk8-CABhNJJQFS-311" vertex="1">
                    <mxGeometry y="80" width="300" height="40" as="geometry"/>
                </mxCell>
                <mxCell id="Mv2XLXqk8-CABhNJJQFS-316" value="PK" style="shape=partialRectangle;connectable=0;fillColor=none;top=0;left=0;bottom=0;right=0;fontStyle=1;overflow=hidden;html=1;whiteSpace=wrap;fontSize=15;" parent="Mv2XLXqk8-CABhNJJQFS-315" vertex="1">
                    <mxGeometry width="60" height="40" as="geometry">
                        <mxRectangle width="60" height="40" as="alternateBounds"/>
                    </mxGeometry>
                </mxCell>
                <mxCell id="Mv2XLXqk8-CABhNJJQFS-317" value="fcst_dt" style="shape=partialRectangle;connectable=0;fillColor=none;top=0;left=0;bottom=0;right=0;align=left;spacingLeft=6;fontStyle=5;overflow=hidden;html=1;whiteSpace=wrap;fontSize=20;" parent="Mv2XLXqk8-CABhNJJQFS-315" vertex="1">
                    <mxGeometry x="60" width="240" height="40" as="geometry">
                        <mxRectangle width="240" height="40" as="alternateBounds"/>
                    </mxGeometry>
                </mxCell>
                <mxCell id="Mv2XLXqk8-CABhNJJQFS-318" value="" style="shape=tableRow;horizontal=0;startSize=0;swimlaneHead=0;swimlaneBody=0;fillColor=none;collapsible=0;dropTarget=0;points=[[0,0.5],[1,0.5]];portConstraint=eastwest;top=0;left=0;right=0;bottom=0;html=1;" parent="Mv2XLXqk8-CABhNJJQFS-311" vertex="1">
                    <mxGeometry y="120" width="300" height="80" as="geometry"/>
                </mxCell>
                <mxCell id="Mv2XLXqk8-CABhNJJQFS-319" value="" style="shape=partialRectangle;connectable=0;fillColor=none;top=0;left=0;bottom=0;right=0;editable=1;overflow=hidden;html=1;whiteSpace=wrap;" parent="Mv2XLXqk8-CABhNJJQFS-318" vertex="1">
                    <mxGeometry width="60" height="80" as="geometry">
                        <mxRectangle width="60" height="80" as="alternateBounds"/>
                    </mxGeometry>
                </mxCell>
                <mxCell id="Mv2XLXqk8-CABhNJJQFS-320" value="" style="shape=partialRectangle;connectable=0;fillColor=none;top=0;left=0;bottom=0;right=0;align=left;spacingLeft=6;overflow=hidden;html=1;whiteSpace=wrap;" parent="Mv2XLXqk8-CABhNJJQFS-318" vertex="1">
                    <mxGeometry x="60" width="240" height="80" as="geometry">
                        <mxRectangle width="240" height="80" as="alternateBounds"/>
                    </mxGeometry>
                </mxCell>
                <mxCell id="Mv2XLXqk8-CABhNJJQFS-321" value="" style="edgeStyle=elbowEdgeStyle;fontSize=12;html=1;endArrow=ERmandOne;startArrow=ERmandOne;entryX=1.001;entryY=0.003;entryDx=0;entryDy=0;entryPerimeter=0;exitX=1.001;exitY=-0.004;exitDx=0;exitDy=0;exitPerimeter=0;" parent="1" source="Mv2XLXqk8-CABhNJJQFS-304" target="Mv2XLXqk8-CABhNJJQFS-315" edge="1">
                    <mxGeometry width="100" height="100" relative="1" as="geometry">
                        <mxPoint x="1510" y="370" as="sourcePoint"/>
                        <mxPoint x="1610" y="270" as="targetPoint"/>
                        <Array as="points">
                            <mxPoint x="1400" y="320"/>
                            <mxPoint x="1400" y="340"/>
                        </Array>
                    </mxGeometry>
                </mxCell>
                <mxCell id="Mv2XLXqk8-CABhNJJQFS-322" value="" style="edgeStyle=elbowEdgeStyle;fontSize=12;html=1;endArrow=ERoneToMany;startArrow=ERmandOne;" parent="1" source="Mv2XLXqk8-CABhNJJQFS-2" target="Mv2XLXqk8-CABhNJJQFS-301" edge="1">
                    <mxGeometry width="100" height="100" relative="1" as="geometry">
                        <mxPoint x="810" y="500" as="sourcePoint"/>
                        <mxPoint x="910" y="400" as="targetPoint"/>
                    </mxGeometry>
                </mxCell>
            </root>
        </mxGraphModel>
    </diagram>
</mxfile>